<svg width="260" height="260" viewBox="0 0 260 260" fill="none" xmlns="http://www.w3.org/2000/svg">
<rect width="260" height="260" fill="#233E66"/>
<path d="M99.9497 149.033L101.077 163.881M99.9497 149.033L102.043 150.818M99.9497 149.033L97.4777 150.818M125.233 170.599V183.857M125.233 170.599L102.043 150.818M125.233 170.599L149.871 151.65M125.233 170.599L122.978 100.951M152.126 149.916V164.942M152.126 149.916L149.871 151.65M152.126 149.916L154.608 151.65M152.126 164.942L138.679 174.399M152.126 164.942L164.123 172.543M125.233 183.857L111.866 172.804M125.233 183.857L138.679 174.399M125.233 183.857L119.113 198.882M125.233 183.857L132.64 198.882M101.077 163.881L90.9017 170.599M101.077 163.881L111.866 172.804M102.043 150.818L122.978 100.951M122.978 100.951L149.871 151.65M74.989 167.063L78.0487 179.084M74.989 167.063L63.2392 149.033M74.989 167.063L76.5994 165.9M59.2074 142.846L63.8775 157.341M59.2074 142.846L63.2392 149.033M59.2074 142.846L27 92.819L46.0711 147.795M59.2074 142.846L48.524 154.866M63.8775 157.341L59.2074 161.826M63.8775 157.341L70.2142 167.063M78.0487 179.084L70.2142 167.063M78.0487 179.084L90.9017 170.599M78.0487 179.084L74.1838 192.342M78.0487 179.084L85.4564 194.64M63.2392 149.033L49.7062 61M49.7062 61L97.4777 150.818M49.7062 61L76.5994 165.9M97.4777 150.818L76.5994 165.9M178.697 168.478L176.12 180.144M178.697 168.478L193.673 149.912M178.697 168.478L177.731 167.803M197.377 145.32L193.673 158.932M197.377 145.32L193.673 149.912M197.377 145.32L232 94.7635L216.405 144.083M197.377 145.32L211.87 158.422M193.673 158.932L185.774 168.478M193.673 158.932L201.161 165.207M176.12 180.144L164.123 172.543M176.12 180.144L185.774 168.478M176.12 180.144L169.518 196.761M176.12 180.144L180.468 194.64M154.608 151.65L198.504 61M154.608 151.65L177.731 167.803M198.504 61L193.673 149.912M198.504 61L177.731 167.803M46.3244 157.341L48.524 154.866M46.3244 157.341L46.0711 147.795M46.3244 157.341L49.3036 162.909M52.2828 168.478L59.2074 161.826M52.2828 168.478L49.3036 162.909M52.2828 168.478L51.4776 179.084M52.2828 168.478L56.6308 183.857M48.524 154.866L46.0711 147.795M213.803 160.169L208.65 171.483M213.803 160.169L211.87 158.422M213.803 160.169L214.661 154.866M208.65 171.483L201.161 165.207M208.65 171.483L203.819 187.392M208.65 171.483L210.099 183.857M211.87 158.422L216.405 144.083M216.405 144.083L214.661 154.866M59.2074 161.826C63.2652 164.15 65.6813 165.29 70.2142 167.063M90.9017 170.599C99.2868 172.253 103.862 172.674 111.866 172.804M138.679 174.399C149.014 173.846 154.582 173.439 164.123 172.543M185.774 168.478C192.221 167.463 195.583 166.743 201.161 165.207M56.6308 183.857C62.2788 188.103 66.1694 189.925 74.1838 192.342M56.6308 183.857L51.4776 179.084M74.1838 192.342L85.4564 194.64M85.4564 194.64C98.5931 197.558 105.962 198.455 119.113 198.882M119.113 198.882H132.64M132.64 198.882C146.82 199.25 154.889 198.815 169.518 196.761M169.518 196.761L180.468 194.64M180.468 194.64C190.013 192.964 195.11 191.336 203.819 187.392M203.819 187.392L210.099 183.857M210.099 183.857C212.111 180.163 213.803 179.084 215.252 174.399C216.701 169.715 214.661 154.866 214.661 154.866M51.4776 179.084L49.3036 162.909" stroke="white" stroke-width="3"/>
</svg>
