<svg viewBox="0 0 286 400" fill="none" xmlns="http://www.w3.org/2000/svg">
  <path d="M49.9049 56.4988L50.6143 65.86M49.9049 56.4988L51.2223 57.6246M49.9049 56.4988L48.3494 57.6246M65.8146 70.0949V78.4531M65.8146 70.0949L51.2223 57.6246M65.8146 70.0949L81.3189 58.1491M65.8146 70.0949L64.3959 26.1862M82.7376 57.056V66.5287M82.7376 57.056L81.3189 58.1491M82.7376 57.056L84.2995 58.1491M82.7376 66.5287L74.2761 72.4909M82.7376 66.5287L90.2871 71.3208M65.8146 78.4531L57.4038 71.4849M65.8146 78.4531L74.2761 72.4909M65.8146 78.4531L61.9639 87.9258M65.8146 78.4531L70.476 87.9258M50.6143 65.86L44.2113 70.0949M50.6143 65.86L57.4038 71.4849M51.2223 57.6246L64.3959 26.1862M64.3959 26.1862L81.3189 58.1491M34.198 67.866L36.1233 75.4442M34.198 67.866L26.8042 56.4988M34.198 67.866L35.2113 67.1326M24.2671 52.5983L27.2058 61.7366M24.2671 52.5983L26.8042 56.4988M24.2671 52.5983L4 21.0598L16.0008 55.7187M24.2671 52.5983L17.5443 60.1764M27.2058 61.7366L24.2671 64.5645M27.2058 61.7366L31.1933 67.866M36.1233 75.4442L31.1933 67.866M36.1233 75.4442L44.2113 70.0949M36.1233 75.4442L33.6913 83.8024M36.1233 75.4442L40.7848 85.2512M26.8042 56.4988L18.2883 1M18.2883 1L48.3494 57.6246M18.2883 1L35.2113 67.1326M48.3494 57.6246L35.2113 67.1326M99.458 68.7576L97.8366 76.1128M99.458 68.7576L108.882 57.0531M99.458 68.7576L98.85 68.332M111.213 54.1585L108.882 62.7396M111.213 54.1585L108.882 57.0531M111.213 54.1585L133 22.2857L123.186 53.3784M111.213 54.1585L120.333 62.4184M108.882 62.7396L103.912 68.7576M108.882 62.7396L113.594 66.6959M97.8366 76.1128L90.2871 71.3208M97.8366 76.1128L103.912 68.7576M97.8366 76.1128L93.6819 86.5885M97.8366 76.1128L100.573 85.2512M84.2995 58.1491L111.922 1M84.2995 58.1491L98.85 68.332M111.922 1L108.882 57.0531M111.922 1L98.85 68.332M16.1603 61.7366L17.5443 60.1764M16.1603 61.7366L16.0008 55.7187M16.1603 61.7366L18.035 65.2471M19.9097 68.7576L24.2671 64.5645M19.9097 68.7576L18.035 65.2471M19.9097 68.7576L19.403 75.4442M19.9097 68.7576L22.6457 78.4531M17.5443 60.1764L16.0008 55.7187M121.549 63.5197L118.306 70.6521M121.549 63.5197L120.333 62.4184M121.549 63.5197L122.089 60.1764M118.306 70.6521L113.594 66.6959M118.306 70.6521L115.266 80.682M118.306 70.6521L119.218 78.4531M120.333 62.4184L123.186 53.3784M123.186 53.3784L122.089 60.1764M24.2671 64.5645C26.8205 66.0296 28.3409 66.748 31.1933 67.866M44.2113 70.0949C49.4878 71.1375 52.3666 71.4031 57.4038 71.4849M74.2761 72.4909C80.7793 72.1423 84.2836 71.8853 90.2871 71.3208M103.912 68.7576C107.968 68.1181 110.084 67.664 113.594 66.6959M22.6457 78.4531C26.1998 81.1304 28.6481 82.2786 33.6913 83.8024M22.6457 78.4531L19.403 75.4442M33.6913 83.8024L40.7848 85.2512M40.7848 85.2512C49.0513 87.0911 53.6885 87.6565 61.9639 87.9258M61.9639 87.9258H70.476M70.476 87.9258C79.3989 88.1573 84.4764 87.8831 93.6819 86.5885M93.6819 86.5885L100.573 85.2512M100.573 85.2512C106.579 84.195 109.786 83.1681 115.266 80.682M115.266 80.682L119.218 78.4531M119.218 78.4531C120.485 76.1247 121.549 75.4442 122.461 72.4909C123.373 69.5377 122.089 60.1764 122.089 60.1764M19.403 75.4442L18.035 65.2471" stroke="white"/>
  <path d="M21.9463 247.232L21.9511 247.237C35.298 261.105 52.6089 268 73.6993 268C99.7807 268 119.557 257.971 132.707 237.849L133.716 236.305L132.258 235.174L116.379 222.861L114.799 221.636L113.574 223.215C108.943 229.182 103.559 233.952 97.4205 237.548C91.4231 241.061 84.0158 242.871 75.1046 242.871C62.7137 242.871 52.5777 238.518 44.5427 229.81C36.9683 221.416 32.771 210.503 32.0742 196.916H133H135V194.916V184.142C135 159.705 129.459 140.613 118.086 127.159C106.681 113.667 90.7155 107 70.4673 107C57.9883 107 46.3718 110.474 35.6586 117.394C25.024 124.229 16.7318 133.752 10.7761 145.9L10.7732 145.906C4.90769 157.971 2 171.664 2 186.94V191.698C2 214.675 8.59157 233.259 21.9463 247.232ZM45.5046 143.115L45.5047 143.115L45.513 143.106C52.2527 135.865 60.5277 132.269 70.4673 132.269C80.8375 132.269 88.8776 135.715 94.8187 142.501L94.8272 142.511C100.781 149.224 104.245 158.855 104.998 171.647H33.1298C34.9679 159.321 39.1407 149.869 45.5046 143.115Z" stroke="white" stroke-width="4"/>
  <path d="M213.519 268.139C230.014 268.139 243.55 263.193 253.952 253.218V261.237C253.952 273.749 250.516 283.171 243.894 289.794L243.885 289.803C237.352 296.424 228.117 299.852 215.899 299.852C200.51 299.852 187.475 293.315 176.701 280.006L175.197 278.148L173.634 279.956L160.19 295.502L159.186 296.663L160.047 297.933C165.797 306.412 174.096 313.029 184.835 317.824C195.535 322.601 206.502 325 217.72 325C237.728 325 253.861 319.223 265.887 307.489C278.024 295.739 284 279.724 284 259.696V111.801V109.801H282H258.333H256.477L256.338 111.651L255.438 123.659C244.949 112.531 231.006 107 213.799 107C195.175 107 180.119 114.278 168.81 128.775C157.531 143.141 152 162.39 152 186.309C152 211.237 157.523 231.182 168.796 245.926L168.801 245.932C180.189 260.699 195.147 268.139 213.519 268.139ZM192.176 228.419C185.5 219.07 182.048 206.086 182.048 189.25C182.048 170.208 185.57 156.181 192.312 146.866C199.013 137.607 208.247 132.988 220.241 132.988C227.862 132.988 234.436 134.722 240.033 138.124C245.515 141.456 250.165 146.454 253.952 153.213V221.392C250.294 228.336 245.685 233.464 240.16 236.883C234.525 240.369 227.818 242.151 219.961 242.151C207.961 242.151 198.779 237.574 192.176 228.419Z" stroke="white" stroke-width="4"/>
  <path d="M26.8794 302.16L34.751 327.15L34.8612 327.5H35.2279H39.9931H40.3702L40.4738 327.137L50.4807 292.137L50.663 291.5H50H44.1229H43.7314L43.6375 291.88L37.4644 316.872L29.8291 291.854L29.721 291.5H29.3508H24.6174H24.2474L24.1392 291.854L16.6523 316.358L10.3294 291.875L10.2326 291.5H9.8453H4H3.33759L3.51915 292.137L13.4943 327.137L13.5977 327.5H13.9751H18.7403H19.11L19.2184 327.147L26.8794 302.16Z" stroke="white"/>
  <path d="M56.9946 323.722L56.9958 323.723C60.006 326.913 63.9123 328.5 68.6688 328.5C74.5516 328.5 79.0143 326.191 81.9787 321.564L82.2229 321.183L81.8679 320.902L78.2982 318.078L77.8986 317.762L77.5901 318.168C76.5522 319.532 75.3462 320.622 73.9723 321.442C72.6342 322.242 70.9797 322.655 68.9847 322.655C66.2161 322.655 63.9521 321.664 62.1548 319.677C60.4675 317.77 59.5267 315.29 59.3638 312.201H82H82.5V311.701V309.23C82.5 303.623 81.2537 299.236 78.6889 296.141C76.1149 293.035 72.5097 291.5 67.9423 291.5C65.1248 291.5 62.5026 292.3 60.086 293.892C57.6869 295.465 55.8178 297.656 54.4764 300.446L54.4757 300.448C53.1544 303.22 52.5 306.365 52.5 309.872V310.963C52.5 316.237 53.9834 320.508 56.9946 323.722ZM62.3705 299.847L62.3726 299.845C63.8792 298.194 65.7251 297.377 67.9423 297.377C70.2576 297.377 72.0496 298.161 73.3755 299.705L73.3776 299.708C74.7015 301.23 75.478 303.416 75.652 306.324H59.6054C60.0214 303.524 60.9551 301.38 62.3705 299.847Z" stroke="white"/>
  <path d="M112.92 323.473L112.921 323.472C115.323 320.128 116.5 315.742 116.5 310.359V309.844C116.5 304.233 115.336 299.748 112.952 296.442C110.573 293.116 107.272 291.446 103.1 291.446C99.4413 291.446 96.4461 292.648 94.155 295.057V278V277.5H93.655H88H87.5V278V327.357V327.857H88H93.1965H93.6634L93.6953 327.391L93.8838 324.64C96.203 327.216 99.3111 328.5 103.162 328.5C107.237 328.5 110.505 326.814 112.92 323.473ZM107.699 300.58C109.109 302.672 109.845 305.686 109.845 309.684C109.845 314.077 109.095 317.278 107.67 319.363C106.257 321.431 104.303 322.455 101.755 322.455C100.008 322.455 98.5161 322.023 97.2588 321.175C96.0229 320.341 94.9839 319.086 94.155 317.378V302.562C94.9352 300.855 95.9444 299.602 97.1686 298.77C98.4135 297.924 99.9143 297.491 101.694 297.491C104.33 297.491 106.31 298.52 107.699 300.58Z" stroke="white"/>
  <path d="M27.1238 336.5H26.6238V337V353.511C24.2711 351.276 21.2374 350.167 17.563 350.167C13.3646 350.167 9.94811 351.833 7.35491 355.145C4.7688 358.426 3.5 362.744 3.5 368.05V368.491C3.5 373.777 4.76942 378.114 7.35246 381.456L7.35372 381.458C9.96508 384.808 13.3591 386.5 17.4995 386.5C21.3723 386.5 24.5238 385.312 26.9064 382.914L27.1017 385.409L27.1378 385.87H27.6002H33H33.5V385.37V337V336.5H33H27.1238ZM12.6927 377.484C11.1686 375.416 10.3762 372.511 10.3762 368.711C10.3762 364.435 11.1742 361.294 12.6941 359.213C14.2034 357.145 16.2935 356.111 19.0241 356.111C20.7698 356.111 22.264 356.495 23.525 357.245C24.7558 357.978 25.791 359.074 26.6238 360.559V375.957C25.8094 377.494 24.7775 378.629 23.5363 379.385C22.2666 380.159 20.748 380.556 18.9606 380.556C16.2733 380.556 14.2028 379.533 12.6927 377.484Z" stroke="white"/>
  <path d="M42.9995 381.855L43.0007 381.856C46.012 384.959 49.9168 386.5 54.6688 386.5C60.5454 386.5 65.008 384.258 67.9752 379.756L68.231 379.367L67.8625 379.084L64.2928 376.339L63.8998 376.037L63.5943 376.427C62.5573 377.752 61.3519 378.811 59.9776 379.61C58.6385 380.387 56.9819 380.79 54.9847 380.79C52.2114 380.79 49.946 379.824 48.1501 377.894C46.468 376.045 45.5295 373.645 45.3646 370.653H68H68.5V370.153V367.751C68.5 362.295 67.2524 358.024 64.6844 355.012C62.1089 351.99 58.5049 350.5 53.9423 350.5C51.1279 350.5 48.5076 351.277 46.0914 352.825C43.6924 354.354 41.8219 356.484 40.4788 359.201L40.4781 359.202C39.1552 361.901 38.5 364.962 38.5 368.375V369.436C38.5 374.57 39.9858 378.728 42.9995 381.855ZM48.3657 358.644L48.3678 358.642C49.873 357.038 51.7203 356.242 53.9423 356.242C56.2624 356.242 58.0557 357.006 59.3801 358.506L59.3822 358.508C60.7011 359.983 61.4755 362.097 61.6511 364.912H45.6079C46.0246 362.203 46.9555 360.128 48.3657 358.644Z" stroke="white"/>
  <path d="M93.5731 351.846L85.6041 376.506L77.4257 351.843L77.3121 351.5H76.9511H71H70.2866L70.53 352.171L82.8731 386.171L82.9927 386.5H83.3431H87.7828H88.1345L88.2534 386.169L100.471 352.169L100.711 351.5H100H94.0489H93.685L93.5731 351.846Z" stroke="white"/>
  <path d="M106.999 380.855L107.001 380.856C110.012 383.959 113.917 385.5 118.669 385.5C124.545 385.5 129.008 383.258 131.975 378.756L132.231 378.367L131.863 378.084L128.293 375.339L127.9 375.037L127.594 375.427C126.557 376.752 125.352 377.811 123.978 378.61C122.638 379.387 120.982 379.79 118.985 379.79C116.211 379.79 113.946 378.824 112.15 376.894C110.468 375.045 109.53 372.645 109.365 369.653H132H132.5V369.153V366.751C132.5 361.295 131.252 357.024 128.684 354.012C126.109 350.99 122.505 349.5 117.942 349.5C115.128 349.5 112.508 350.277 110.091 351.825C107.692 353.354 105.822 355.484 104.479 358.201L104.478 358.202C103.155 360.901 102.5 363.962 102.5 367.375V368.436C102.5 373.57 103.986 377.728 106.999 380.855ZM112.366 357.644L112.368 357.642C113.873 356.038 115.72 355.242 117.942 355.242C120.262 355.242 122.056 356.006 123.38 357.506L123.382 357.508C124.701 358.983 125.475 361.097 125.651 363.912H109.608C110.025 361.203 110.955 359.128 112.366 357.644Z" stroke="white"/>
  <path d="M144 386.5H144.5V386V338V337.5H144H138H137.5V338V386V386.5H138H144Z" stroke="white"/>
  <path d="M150.438 359.049L150.438 359.049L150.437 359.051C149.142 361.768 148.5 364.817 148.5 368.188V368.594C148.5 373.924 149.906 378.262 152.765 381.555L152.766 381.556C155.648 384.854 159.413 386.5 164.015 386.5C167.065 386.5 169.78 385.75 172.142 384.238C174.521 382.728 176.338 380.626 177.595 377.946C178.868 375.251 179.5 372.224 179.5 368.874V368.469C179.5 363.097 178.084 358.738 175.204 355.444C172.341 352.146 168.575 350.5 163.954 350.5C160.964 350.5 158.281 351.24 155.921 352.73L155.921 352.73L155.919 352.731C153.58 354.22 151.754 356.332 150.438 359.049ZM170.375 359.501L170.374 359.501L170.378 359.505C172.021 361.684 172.865 364.563 172.865 368.188C172.865 372.265 172.034 375.37 170.434 377.562C168.844 379.72 166.72 380.79 164.015 380.79C161.33 380.79 159.204 379.73 157.593 377.59C155.991 375.434 155.165 372.544 155.165 368.874C155.165 364.711 156.007 361.589 157.623 359.442C159.236 357.298 161.333 356.242 163.954 356.242C166.637 356.242 168.762 357.319 170.375 359.501Z" stroke="white"/>
  <path d="M190.87 399.5H191.37V399V383.731C193.774 385.905 196.901 386.978 200.706 386.978C204.941 386.978 208.327 385.316 210.814 382.004C213.287 378.711 214.5 374.4 214.5 369.119V368.581C214.5 362.991 213.28 358.558 210.778 355.342C208.287 352.113 204.88 350.5 200.611 350.5C196.678 350.5 193.478 351.731 191.058 354.213L190.861 351.595L190.826 351.132H190.362H185H184.5V351.632V399V399.5H185H190.87ZM205.223 378.084L205.223 378.085C203.669 380.169 201.588 381.204 198.929 381.204C197.194 381.204 195.708 380.83 194.452 380.101C193.229 379.391 192.2 378.328 191.37 376.891V360.809C193.058 357.898 195.538 356.464 198.865 356.464C201.59 356.464 203.701 357.512 205.253 359.613C206.819 361.734 207.63 364.663 207.63 368.455C207.63 372.789 206.802 375.973 205.223 378.084Z" stroke="white"/>
  <path d="M222.999 382.855L223.001 382.856C226.012 385.959 229.917 387.5 234.669 387.5C240.545 387.5 245.008 385.258 247.975 380.756L248.231 380.367L247.863 380.084L244.293 377.339L243.9 377.037L243.594 377.427C242.557 378.752 241.352 379.811 239.978 380.61C238.638 381.387 236.982 381.79 234.985 381.79C232.211 381.79 229.946 380.824 228.15 378.894C226.468 377.045 225.53 374.645 225.365 371.653H248H248.5V371.153V368.751C248.5 363.295 247.252 359.024 244.684 356.012C242.109 352.99 238.505 351.5 233.942 351.5C231.128 351.5 228.508 352.277 226.091 353.825C223.692 355.354 221.822 357.484 220.479 360.201L220.478 360.202C219.155 362.901 218.5 365.962 218.5 369.375V370.436C218.5 375.57 219.986 379.728 222.999 382.855ZM228.366 359.644L228.368 359.642C229.873 358.038 231.72 357.242 233.942 357.242C236.262 357.242 238.056 358.006 239.38 359.506L239.382 359.508C240.701 360.983 241.475 363.097 241.651 365.912H225.608C226.025 363.203 226.955 361.128 228.366 359.644Z" stroke="white"/>
  <path d="M269.915 358.4L270.5 358.501V357.907V352.445V352.141L270.23 352.001C269.554 351.65 268.623 351.5 267.491 351.5C264.417 351.5 261.932 352.698 260.063 355.056L260.007 352.624L259.995 352.135H259.507H254H253.5V352.635V387V387.5H254H259.66H260.16V387V362.706C260.789 361.189 261.679 360.076 262.816 359.335C263.977 358.578 265.434 358.185 267.216 358.185C268.191 358.185 269.09 358.257 269.915 358.4Z" stroke="white"/>
  <path d="M275.474 380.691L275.474 380.691L275.469 380.697C274.814 381.479 274.5 382.447 274.5 383.564C274.5 384.644 274.818 385.581 275.474 386.341L275.474 386.341L275.48 386.347C276.19 387.141 277.218 387.5 278.47 387.5C279.72 387.5 280.746 387.142 281.457 386.35C282.157 385.592 282.5 384.652 282.5 383.564C282.5 382.439 282.161 381.468 281.462 380.687C280.753 379.872 279.725 379.5 278.47 379.5C277.213 379.5 276.184 379.873 275.474 380.691Z" stroke="white"/>
</svg>
