<svg viewBox="0 0 860 400" fill="none" xmlns="http://www.w3.org/2000/svg">
  <path d="M58.4454 66.7055L59.2867 77.7883M58.4454 66.7055L60.0079 68.0383M58.4454 66.7055L56.6004 68.0383M77.315 82.802V92.6974M77.315 82.802L60.0079 68.0383M77.315 82.802L95.7039 68.6593M77.315 82.802L75.6324 30.8181M97.3865 67.3652V78.5799M97.3865 67.3652L95.7039 68.6593M97.3865 67.3652L99.239 68.6593M97.3865 78.5799L87.3507 85.6387M97.3865 78.5799L106.341 84.2533M77.315 92.6974L67.3394 84.4477M77.315 92.6974L87.3507 85.6387M77.315 92.6974L72.7478 103.912M77.315 92.6974L82.8437 103.912M59.2867 77.7883L51.6925 82.802M59.2867 77.7883L67.3394 84.4477M60.0079 68.0383L75.6324 30.8181M75.6324 30.8181L95.7039 68.6593M39.8162 80.1632L42.0998 89.135M39.8162 80.1632L31.0468 66.7055M39.8162 80.1632L41.0181 79.295M28.0377 62.0876L31.5232 72.9066M28.0377 62.0876L31.0468 66.7055M28.0377 62.0876L4 24.749L18.2335 65.7819M28.0377 62.0876L20.0642 71.0594M31.5232 72.9066L28.0377 76.2545M31.5232 72.9066L36.2525 80.1632M42.0998 89.135L36.2525 80.1632M42.0998 89.135L51.6925 82.802M42.0998 89.135L39.2152 99.0304M42.0998 89.135L47.6284 100.746M31.0468 66.7055L20.9466 1M20.9466 1L56.6004 68.0383M20.9466 1L41.0181 79.295M56.6004 68.0383L41.0181 79.295M117.218 81.2187L115.295 89.9267M117.218 81.2187L128.395 67.3617M117.218 81.2187L116.496 80.715M131.159 63.9348L128.395 74.094M131.159 63.9348L128.395 67.3617M131.159 63.9348L157 26.2003L145.361 63.0112M131.159 63.9348L141.976 73.7137M128.395 74.094L122.5 81.2187M128.395 74.094L133.984 78.7779M115.295 89.9267L106.341 84.2533M115.295 89.9267L122.5 81.2187M115.295 89.9267L110.367 102.329M115.295 89.9267L118.54 100.746M99.239 68.6593L132.001 1M99.239 68.6593L116.496 80.715M132.001 1L128.395 67.3617M132.001 1L116.496 80.715M18.4226 72.9066L20.0642 71.0594M18.4226 72.9066L18.2335 65.7819M18.4226 72.9066L20.6461 77.0626M22.8696 81.2187L28.0377 76.2545M22.8696 81.2187L20.6461 77.0626M22.8696 81.2187L22.2687 89.135M22.8696 81.2187L26.1147 92.6974M20.0642 71.0594L18.2335 65.7819M143.419 75.0176L139.573 83.4617M143.419 75.0176L141.976 73.7137M143.419 75.0176L144.059 71.0594M139.573 83.4617L133.984 78.7779M139.573 83.4617L135.967 95.3362M139.573 83.4617L140.654 92.6974M141.976 73.7137L145.361 63.0112M145.361 63.0112L144.059 71.0594M28.0377 76.2545C31.0662 77.9891 32.8694 78.8396 36.2525 80.1632M51.6925 82.802C57.9507 84.0363 61.3651 84.3508 67.3394 84.4477M87.3507 85.6387C95.0638 85.226 99.2201 84.9217 106.341 84.2533M122.5 81.2187C127.311 80.4616 129.82 79.924 133.984 78.7779M26.1147 92.6974C30.33 95.8671 33.2338 97.2263 39.2152 99.0304M26.1147 92.6974L22.2687 89.135M39.2152 99.0304L47.6284 100.746M47.6284 100.746C57.4329 102.924 62.9329 103.593 72.7478 103.912M72.7478 103.912H82.8437M82.8437 103.912C93.4266 104.186 99.4488 103.862 110.367 102.329M110.367 102.329L118.54 100.746M118.54 100.746C125.663 99.4952 129.467 98.2795 135.967 95.3362M135.967 95.3362L140.654 92.6974M140.654 92.6974C142.156 89.9408 143.419 89.135 144.5 85.6387C145.582 82.1423 144.059 71.0594 144.059 71.0594M22.2687 89.135L20.6461 77.0626" stroke="white"/>
  <path d="M25.5512 293.379L25.556 293.384C41.3075 309.82 61.7391 318 86.6667 318C117.492 318 140.825 306.105 156.343 282.257L157.345 280.718L155.896 279.589L137.062 264.922L135.478 263.689L134.251 265.277C128.731 272.42 122.309 278.135 114.986 282.443C107.804 286.667 98.9513 288.833 88.3333 288.833C73.54 288.833 61.4178 283.609 51.8133 273.155C42.6855 262.997 37.6739 249.776 36.906 233.333H157H159V231.333V218.5C159 189.448 152.44 166.81 139.03 150.879C125.587 134.908 106.762 127 82.8333 127C68.1041 127 54.395 131.117 41.7469 139.321C29.195 147.423 19.4047 158.712 12.3694 173.123L12.3665 173.129C5.4388 187.438 2 203.688 2 221.833V227.5C2 254.789 9.79275 276.821 25.5512 293.379ZM52.9585 169.368L52.9585 169.369L52.9669 169.36C61.0321 160.658 70.9446 156.333 82.8333 156.333C95.2224 156.333 104.865 160.472 111.992 168.648L112.001 168.657C119.157 176.76 123.287 188.367 124.167 203.724V204H38.1172C40.2714 189.049 45.268 177.565 52.9585 169.368Z" stroke="white" stroke-width="4"/>
  <path d="M252.678 318.245C272.521 318.245 288.712 312.176 301.068 299.952V310.404C301.068 325.386 296.966 336.724 289.012 344.705L289.003 344.715C281.156 352.694 270.085 356.8 255.505 356.8C237.108 356.8 221.526 348.951 208.668 333.013L207.162 331.146L205.597 332.963L189.632 351.487L188.633 352.645L189.49 353.912C196.272 363.948 206.066 371.791 218.767 377.481C231.428 383.153 244.4 386 257.667 386C281.354 386 300.411 379.139 314.608 365.239C328.932 351.324 336 332.35 336 308.568V132.338V130.338H334H305.895H304.039L303.901 132.189L302.767 147.358C290.326 133.764 273.674 127 253.011 127C231.006 127 213.236 135.622 199.88 152.803C186.555 169.834 180 192.677 180 221.12C180 250.769 186.546 274.444 199.867 291.924L199.872 291.93C213.324 309.434 230.978 318.245 252.678 318.245ZM227.031 271.524C219.041 260.296 214.932 244.735 214.932 224.625C214.932 201.897 219.12 185.087 227.193 173.894C235.226 162.757 246.307 157.201 260.661 157.201C269.769 157.201 277.644 159.281 284.357 163.375C290.954 167.399 296.536 173.436 301.068 181.583V263.022C296.691 271.388 291.159 277.583 284.51 281.711C277.75 285.908 269.716 288.044 260.328 288.044C245.968 288.044 234.949 282.539 227.031 271.524Z" stroke="white" stroke-width="4"/>
  <path d="M380.396 293.374L380.401 293.379C396.051 309.817 416.354 318 441.126 318C471.76 318 494.945 306.101 510.362 282.252L511.353 280.719L509.916 279.593L491.206 264.926L489.615 263.68L488.385 265.282C482.902 272.425 476.523 278.139 469.249 282.446C462.117 286.668 453.327 288.833 442.782 288.833C428.094 288.833 416.056 283.613 406.515 273.16C397.447 263.003 392.467 249.78 391.704 233.333H511H513V231.333V218.5C513 189.451 506.484 166.815 493.162 150.884C479.805 134.911 461.098 127 437.318 127C422.68 127 409.056 131.119 396.488 139.324C384.016 147.428 374.289 158.717 367.301 173.127L367.298 173.133C360.416 187.442 357 203.69 357 221.833V227.5C357 254.785 364.74 276.816 380.396 293.374ZM407.653 169.364L407.653 169.364L407.661 169.355C415.672 160.654 425.515 156.333 437.318 156.333C449.618 156.333 459.193 160.469 466.272 168.643L466.281 168.652C473.39 176.755 477.494 188.364 478.368 203.723V204H392.907C395.047 189.045 400.012 177.56 407.653 169.364Z" stroke="white" stroke-width="4"/>
  <path d="M567.405 135.251L567.32 133.339H565.407H536H534V135.339V316V318H536H567.087H569.087V316V187.735C573.186 179.534 578.837 172.923 586.047 167.866C593.3 162.779 601.741 160.214 611.449 160.214C623.586 160.214 632.076 163.256 637.378 168.93L637.384 168.937L637.391 168.944C642.834 174.659 645.802 183.694 645.913 196.459V316V318H647.913H679H681V316V196.617V196.609L681 196.601C680.83 174.806 675.844 158.091 665.699 146.817C655.517 135.5 640.444 130 620.859 130C599.602 130 582 137.644 568.187 152.88L567.405 135.251Z" stroke="white" stroke-width="4"/>
  <path d="M723.706 293.384L723.711 293.389C739.564 309.823 760.124 318 785.207 318C816.225 318 839.705 306.11 855.324 282.262L856.337 280.716L854.875 279.585L835.919 264.918L834.341 263.697L833.116 265.272C827.56 272.416 821.096 278.131 813.723 282.44C806.491 286.667 797.576 288.833 786.885 288.833C771.986 288.833 759.78 283.606 750.112 273.15C740.924 262.992 735.881 249.773 735.108 233.333H856H858V231.333V218.5C858 189.445 851.396 166.806 837.899 150.874C824.369 134.904 805.426 127 781.349 127C766.529 127 752.734 131.115 740.006 139.317C727.374 147.418 717.52 158.706 710.438 173.118L710.435 173.124C703.462 187.435 700 203.686 700 221.833V227.5C700 254.792 707.845 276.826 723.706 293.384ZM751.265 169.373L751.265 169.373L751.273 169.364C759.392 160.661 769.374 156.333 781.349 156.333C793.826 156.333 803.537 160.475 810.712 168.652L810.721 168.662C817.924 176.765 822.08 188.37 822.965 203.724V204H736.327C738.495 189.052 743.524 177.57 751.265 169.373Z" stroke="white" stroke-width="4"/>
  <path d="M399.857 353.609L409.182 383.151L409.292 383.5H409.659H415.253H415.63L415.733 383.138L427.481 342.138L427.663 341.5H427H420.101H419.71L419.615 341.88L412.293 371.462L403.238 341.854L403.13 341.5H402.76H397.203H396.833L396.725 341.854L387.846 370.853L380.346 341.875L380.249 341.5H379.862H373H372.337L372.519 342.137L384.229 383.137L384.333 383.5H384.71H390.304H390.673L390.782 383.147L399.857 353.609Z" stroke="white"/>
  <path d="M435.747 378.952L435.748 378.954C439.26 382.657 443.816 384.5 449.37 384.5C456.24 384.5 461.443 381.819 464.902 376.447L465.148 376.065L464.791 375.784L460.606 372.489L460.207 372.176L459.899 372.579C458.676 374.178 457.254 375.457 455.633 376.42C454.048 377.363 452.092 377.848 449.741 377.848C446.47 377.848 443.792 376.681 441.668 374.345C439.659 372.085 438.549 369.144 438.37 365.484H465H465.5V364.984V362.102C465.5 355.571 464.041 350.474 461.051 346.883C458.052 343.282 453.851 341.5 448.519 341.5C445.233 341.5 442.176 342.428 439.356 344.277C436.557 346.102 434.376 348.646 432.809 351.889L432.808 351.891C431.265 355.112 430.5 358.769 430.5 362.85V364.123C430.5 370.261 432.234 375.222 435.747 378.952ZM441.922 351.1L441.924 351.097C443.706 349.154 445.894 348.19 448.519 348.19C451.256 348.19 453.382 349.113 454.955 350.936L454.957 350.939C456.537 352.747 457.453 355.342 457.648 358.784V358.794H438.645C439.127 355.47 440.232 352.92 441.922 351.1Z" stroke="white"/>
  <path d="M501.296 378.705L501.297 378.703C504.115 374.841 505.5 369.77 505.5 363.536V362.94C505.5 356.439 504.13 351.253 501.333 347.437C498.545 343.6 494.682 341.677 489.797 341.677C485.426 341.677 481.868 343.116 479.165 346.003V326V325.5H478.665H472H471.5V326V383.255V383.755H472H478.124H478.591L478.623 383.289L478.86 379.892C481.59 382.968 485.277 384.5 489.869 384.5C494.64 384.5 498.464 382.56 501.296 378.705ZM495.293 352.151C496.967 354.595 497.835 358.109 497.835 362.753C497.835 367.855 496.951 371.586 495.259 374.023C493.577 376.444 491.247 377.648 488.212 377.648C486.135 377.648 484.358 377.142 482.859 376.147C481.383 375.167 480.148 373.694 479.165 371.696V354.476C480.09 352.479 481.29 351.008 482.753 350.029C484.237 349.036 486.025 348.53 488.14 348.53C491.277 348.53 493.639 349.737 495.293 352.151Z" stroke="white"/>
  <path d="M556.111 325.5H555.611V326V345.751C552.85 343.03 549.267 341.677 544.901 341.677C540.004 341.677 536.023 343.638 533 347.536C529.984 351.4 528.5 356.488 528.5 362.753V363.275C528.5 369.517 529.984 374.628 532.997 378.564L532.999 378.565C536.044 382.51 539.998 384.5 544.827 384.5C549.42 384.5 553.137 383.056 555.927 380.146L556.171 383.293L556.206 383.755H556.669H563H563.5V383.255V326V325.5H563H556.111ZM539.123 373.976C537.321 371.507 536.389 368.046 536.389 363.536C536.389 358.465 537.326 354.723 539.125 352.236C540.912 349.764 543.389 348.53 546.614 348.53C548.673 348.53 550.44 348.987 551.934 349.884C553.397 350.763 554.626 352.081 555.611 353.861V372.137C554.648 373.979 553.424 375.341 551.948 376.25C550.444 377.175 548.648 377.648 546.54 377.648C543.365 377.648 540.912 376.426 539.123 373.976Z" stroke="white"/>
  <path d="M574.747 378.952L574.748 378.954C578.26 382.657 582.816 384.5 588.37 384.5C595.24 384.5 600.443 381.819 603.902 376.447L604.148 376.065L603.791 375.784L599.606 372.489L599.207 372.176L598.899 372.579C597.676 374.178 596.254 375.457 594.633 376.42C593.048 377.363 591.092 377.848 588.741 377.848C585.47 377.848 582.792 376.681 580.668 374.345C578.659 372.085 577.549 369.144 577.37 365.484H604H604.5V364.984V362.102C604.5 355.571 603.041 350.474 600.051 346.883C597.052 343.282 592.851 341.5 587.519 341.5C584.233 341.5 581.176 342.428 578.356 344.277C575.557 346.102 573.376 348.646 571.809 351.889L571.808 351.891C570.265 355.112 569.5 358.769 569.5 362.85V364.123C569.5 370.261 571.234 375.222 574.747 378.952ZM580.922 351.1L580.924 351.097C582.706 349.154 584.894 348.19 587.519 348.19C590.256 348.19 592.382 349.113 593.955 350.936L593.957 350.939C595.537 352.747 596.453 355.342 596.648 358.784V358.794H577.645C578.127 355.47 579.232 352.92 580.922 351.1Z" stroke="white"/>
  <path d="M634.547 343.847L625.123 373.109L615.452 343.843L615.339 343.5H614.977H608H607.287L607.53 344.17L622.001 384.17L622.12 384.5H622.471H627.676H628.028L628.147 384.169L642.471 344.169L642.71 343.5H642H635.023H634.659L634.547 343.847Z" stroke="white"/>
  <path d="M650.747 377.952L650.748 377.954C654.26 381.657 658.816 383.5 664.37 383.5C671.24 383.5 676.443 380.819 679.902 375.447L680.148 375.065L679.791 374.784L675.606 371.489L675.207 371.176L674.899 371.579C673.676 373.178 672.254 374.457 670.633 375.42C669.048 376.363 667.092 376.848 664.741 376.848C661.47 376.848 658.792 375.681 656.668 373.345C654.659 371.085 653.549 368.144 653.37 364.484H680H680.5V363.984V361.102C680.5 354.571 679.041 349.474 676.051 345.883C673.052 342.282 668.851 340.5 663.519 340.5C660.233 340.5 657.176 341.428 654.356 343.277C651.557 345.102 649.376 347.646 647.809 350.889L647.808 350.891C646.265 354.112 645.5 357.769 645.5 361.85V363.123C645.5 369.261 647.234 374.222 650.747 377.952ZM656.922 350.1L656.924 350.097C658.706 348.154 660.894 347.19 663.519 347.19C666.256 347.19 668.382 348.113 669.955 349.936L669.957 349.939C671.537 351.747 672.453 354.342 672.648 357.784V357.794H653.645C654.127 354.47 655.232 351.92 656.922 350.1Z" stroke="white"/>
  <path d="M694 384.5H694.5V384V327V326.5H694H687H686.5V327V384V384.5H687H694Z" stroke="white"/>
  <path d="M701.751 351.707L701.751 351.707L701.749 351.71C700.246 354.953 699.5 358.595 699.5 362.626V363.112C699.5 369.488 701.135 374.665 704.45 378.595L704.452 378.597C707.796 382.532 712.166 384.5 717.518 384.5C721.065 384.5 724.217 383.603 726.959 381.798C729.72 379.996 731.829 377.487 733.287 374.289C734.766 371.071 735.5 367.454 735.5 363.449V362.963C735.5 356.538 733.854 351.335 730.514 347.404C727.192 343.468 722.821 341.5 717.447 341.5C713.97 341.5 710.854 342.385 708.114 344.163L708.112 344.165C705.396 345.943 703.278 348.464 701.751 351.707ZM725 352.137L725 352.137L725.003 352.141C726.937 354.777 727.926 358.258 727.926 362.626C727.926 367.533 726.954 371.285 725.07 373.94C723.197 376.555 720.694 377.848 717.518 377.848C714.364 377.848 711.86 376.566 709.963 373.973C708.077 371.363 707.109 367.871 707.109 363.449C707.109 358.439 708.095 354.666 709.997 352.065C711.897 349.468 714.368 348.19 717.447 348.19C720.597 348.19 723.101 349.493 725 352.137Z" stroke="white"/>
  <path d="M748.882 372.903C750.94 376.608 754.09 378.46 758.33 378.46C761.629 378.46 764.245 377.146 766.179 374.518C768.139 371.864 769.118 367.934 769.118 362.727C769.118 358.146 768.151 354.529 766.217 351.875C764.282 349.222 761.629 347.895 758.256 347.895C754.09 347.895 750.965 349.76 748.882 353.49M748.882 372.903H749.382V372.772M748.882 372.903L749.319 372.66C749.34 372.698 749.361 372.735 749.382 372.772M748.882 372.903V353.49M749.382 372.772C750.364 374.503 751.586 375.784 753.041 376.64C754.528 377.514 756.285 377.96 758.33 377.96C761.472 377.96 763.938 376.72 765.777 374.221L765.777 374.221C767.646 371.69 768.618 367.885 768.618 362.727C768.618 358.211 767.664 354.71 765.813 352.17C763.975 349.65 761.474 348.395 758.256 348.395C756.25 348.395 754.518 348.843 753.044 349.723C751.6 350.585 750.377 351.877 749.382 353.621M749.382 372.772V353.621M749.382 353.621V353.49H748.882M749.382 353.621C749.361 353.659 749.339 353.696 749.318 353.734L748.882 353.49M748.882 399.5H749.382V399V380.665C752.201 383.318 755.894 384.63 760.414 384.63C765.355 384.63 769.3 382.668 772.198 378.758C775.082 374.869 776.5 369.773 776.5 363.516V362.877C776.5 356.254 775.073 351.013 772.156 347.216C769.255 343.406 765.285 341.5 760.302 341.5C755.638 341.5 751.865 343.001 749.031 346.021L748.785 342.714L748.751 342.251H748.287H742H741.5V342.751V399V399.5H742H748.882Z" stroke="white"/>
  <path d="M786.751 380.085L786.752 380.086C790.265 383.703 794.82 385.5 800.37 385.5C807.234 385.5 812.438 382.886 815.899 377.638L816.155 377.25L815.786 376.966L811.601 373.751L811.208 373.449L810.903 373.839C809.681 375.399 808.259 376.647 806.638 377.588C805.052 378.509 803.094 378.982 800.741 378.982C797.466 378.982 794.787 377.842 792.664 375.562C790.659 373.361 789.551 370.499 789.371 366.937H816H816.5V366.437V363.623C816.5 357.244 815.04 352.263 812.047 348.755C809.047 345.238 804.847 343.5 799.519 343.5C796.236 343.5 793.18 344.405 790.36 346.21C787.562 347.992 785.379 350.475 783.811 353.645L783.81 353.646C782.266 356.794 781.5 360.367 781.5 364.354V365.596C781.5 371.593 783.236 376.441 786.751 380.085ZM792.918 352.895L792.92 352.893C794.701 350.997 796.89 350.054 799.519 350.054C802.26 350.054 804.387 350.958 805.959 352.736L805.961 352.738C807.538 354.5 808.452 357.028 808.648 360.382H789.647C790.13 357.149 791.232 354.668 792.918 352.895Z" stroke="white"/>
  <path d="M841.916 351.413L842.5 351.513V350.92V344.521V344.215L842.228 344.076C841.446 343.675 840.359 343.5 839.021 343.5C835.314 343.5 832.334 344.959 830.112 347.838L830.039 344.732L830.028 344.244H829.539H823H822.5V344.744V385V385.5H823H829.721H830.221V385V356.526C830.974 354.728 832.043 353.404 833.415 352.522C834.813 351.624 836.563 351.16 838.694 351.16C839.857 351.16 840.93 351.245 841.916 351.413Z" stroke="white"/>
  <path d="M848.596 377.836L848.596 377.836L848.59 377.843C847.855 378.722 847.5 379.81 847.5 381.073C847.5 382.292 847.858 383.346 848.596 384.2L848.596 384.2L848.601 384.206C849.396 385.094 850.548 385.5 851.965 385.5C853.381 385.5 854.532 385.095 855.326 384.209C856.114 383.357 856.5 382.3 856.5 381.073C856.5 379.803 856.117 378.711 855.332 377.833C854.538 376.92 853.386 376.5 851.965 376.5C850.543 376.5 849.389 376.921 848.596 377.836Z" stroke="white"/>
</svg>
